<svg width="25" height="241" viewBox="0 0 25 241" fill="none" xmlns="http://www.w3.org/2000/svg">
<path d="M7.82566 0.222736C7.53228 1.12123 8.1569 1.18845 8.31542 1.43492C8.43845 1.62762 8.29649 1.98388 8.52363 2.33342C8.79335 2.74794 9.64273 2.92047 10.0497 3.24088C11.0079 3.99822 10.3478 3.78311 11.7224 4.34551C13.3975 5.02891 15.4796 6.07753 17.0411 7.03652C17.4268 7.27179 17.8148 7.89021 18.1271 8.02465C18.4063 8.1434 18.7565 8.06946 19.0049 8.20166C19.4047 8.41452 20.1382 9.77459 20.971 10.0412C21.2052 10.1152 21.4324 9.9628 21.6595 10.0457C22.8709 10.4961 22.7005 12.1116 24.1532 12.1429C24.1509 13.3014 24.2999 14.5247 24.1343 15.7347C23.9947 16.7497 23.6493 17.0858 23.0886 17.8521C22.684 17.5115 22.1232 17.8812 21.5909 17.8588C18.8819 17.7378 17.5687 16.3397 15.463 15.7459C15.2241 15.6787 14.9047 15.8759 14.7461 15.7683C14.5474 15.6316 14.5521 15.058 14.2185 14.9034C14.0127 14.8093 13.7146 14.9863 13.4638 14.9572C12.0726 14.7959 12.8179 13.6755 12.6215 13.4873C12.5576 13.4268 11.4503 13.5837 11.0268 13.4022C10.6625 13.2453 10.4921 12.6426 10.1278 12.4051C9.56229 12.0399 8.46211 11.7463 7.94396 11.4506C5.82878 10.2406 4.58428 8.79991 2.67257 7.37038C2.41941 7.17992 1.97698 7.10598 1.78533 6.86623C1.34999 6.31728 1.76404 5.34036 0.377577 5.59579C0.368113 5.45463 0.370479 5.30451 0.200129 5.2597C0.327892 3.35067 1.79006 1.47525 3.62133 0.69327C5.12372 0.052447 6.24519 0.251864 7.82566 0.222736Z" fill="#A6C5F3"/>
<path d="M0.37275 5.59353C1.75921 5.3381 1.34517 6.31502 1.78051 6.86397C1.97215 7.10372 2.41459 7.17766 2.66775 7.36812C4.57709 8.79765 5.82395 10.2361 7.93914 11.4483C8.45728 11.7463 9.55746 12.0376 10.1229 12.4028C10.4873 12.6381 10.6576 13.2431 11.022 13.3999C11.4455 13.5814 12.5552 13.4246 12.6167 13.4851C12.8107 13.6733 12.0678 14.7936 13.459 14.9549C13.7097 14.9841 14.0079 14.807 14.2137 14.9012C14.5473 15.0535 14.5402 15.6294 14.7413 15.766C14.8998 15.8736 15.2169 15.6764 15.4582 15.7436C17.5663 16.3374 18.8794 17.7356 21.5861 17.8566C22.1184 17.8812 22.6792 17.5115 23.0837 17.8498C19.0781 23.3304 10.5796 18.2935 5.33656 22.2975C4.46589 22.963 4.04474 23.9197 2.74582 24.0497C1.21504 24.2021 0.327797 23.2319 0.19057 21.8785C0.488683 21.5648 0.488683 20.6798 0.19057 20.3683C0.188204 20.2563 0.19057 20.1443 0.19057 20.0322C0.469755 19.9224 0.469755 19.304 0.19057 19.192C0.200034 18.7461 0.183473 18.2957 0.19057 17.8498C0.252086 13.857 0.609348 9.63117 0.368019 5.59353H0.37275Z" fill="#A6C5F3"/>
<path d="M24.1508 12.1407C22.6981 12.1093 22.8684 10.4938 21.657 10.0435C21.4275 9.95831 21.2004 10.1129 20.9685 10.039C20.1357 9.77234 19.3999 8.41227 19.0024 8.19941C18.754 8.06721 18.4062 8.14115 18.1246 8.0224C17.8123 7.88796 17.4243 7.27179 17.0386 7.03428C15.4771 6.07752 13.395 5.0289 11.7199 4.34327C10.3453 3.78087 11.0054 3.99597 10.0472 3.23863C9.64261 2.91822 8.79323 2.74569 8.52114 2.33117C8.29401 1.98163 8.43596 1.62537 8.31293 1.43268C8.15678 1.18621 7.5298 1.11675 7.82318 0.22049C10.9581 0.159993 15.2074 -0.117846 18.2027 0.0569236C25.4379 0.478164 24.1602 7.25834 24.1484 12.1407H24.1508Z" fill="#A6C5F3"/>
<path d="M0.372804 5.59353C0.614133 9.63117 0.256871 13.8548 0.195355 17.8498V5.25968C0.365706 5.30449 0.36334 5.45237 0.372804 5.59578V5.59353Z" fill="#A6C5F3"/>
<path d="M0.195328 21.8785C0.148009 21.4012 0.209524 20.859 0.195328 20.3683C0.493441 20.682 0.493441 21.5671 0.195328 21.8785Z" fill="#A6C5F3"/>
<path d="M0.195378 20.0322C0.195378 19.7521 0.190646 19.4721 0.195378 19.192C0.474563 19.3018 0.474563 19.9202 0.195378 20.0322Z" fill="#A6C5F3"/>
<path d="M21.1556 61.2808C21.1556 62.5392 20.7427 63.746 20.0076 64.6358C19.2725 65.5256 18.2756 66.0254 17.236 66.0254C16.1965 66.0254 15.1996 65.5256 14.4645 64.6358C13.7294 63.746 13.3165 62.5392 13.3165 61.2808C13.3165 60.0225 13.7294 58.8156 14.4645 57.9259C15.1996 57.0361 16.1965 56.5362 17.236 56.5362C18.2756 56.5362 19.2725 57.0361 20.0076 57.9259C20.7427 58.8156 21.1556 60.0225 21.1556 61.2808Z" fill="#B1BBC2"/>
<path d="M17.2359 65.0765C16.2349 65.0765 15.2809 65.2663 14.4186 65.7407C12.157 66.9743 10.5163 69.5365 10.2297 72.6679C10.2297 73.7117 10.8826 74.5658 11.7486 74.5658H22.7233C23.5896 74.5658 24.2426 73.7117 24.2426 72.6679C23.9556 69.5365 22.3149 66.9743 20.0533 65.7407C19.191 65.2663 18.237 65.0765 17.2359 65.0765Z" fill="#B1BBC2"/>
<path d="M11.103 61.2808C11.103 62.5392 10.6901 63.746 9.95499 64.6358C9.21993 65.5256 8.22298 66.0254 7.18344 66.0254C6.14391 66.0254 5.14695 65.5256 4.41189 64.6358C3.67683 63.746 3.26388 62.5392 3.26388 61.2808C3.26388 60.0225 3.67683 58.8156 4.41189 57.9259C5.14695 57.0361 6.14391 56.5362 7.18344 56.5362C8.22298 56.5362 9.21993 57.0361 9.95499 57.9259C10.6901 58.8156 11.103 60.0225 11.103 61.2808Z" fill="#C9C4C4"/>
<path d="M7.18334 65.0765C6.18228 65.0765 5.22826 65.2663 4.36595 65.7407C2.10437 66.9743 0.463716 69.5365 0.177117 72.6679C0.177117 73.7117 0.830038 74.5658 1.69595 74.5658H12.6707C13.5369 74.5658 14.1899 73.7117 14.1899 72.6679C13.903 69.5365 12.2623 66.9743 10.0007 65.7407C9.13841 65.2663 8.18439 65.0765 7.18334 65.0765Z" fill="#C9C4C4"/>
<path d="M8.59701 67.0222C5.69623 68.5865 3.59272 71.8354 3.2252 75.8062C3.2252 77.1298 4.06248 78.2127 5.17289 78.2127H19.2465C20.3574 78.2127 21.1947 77.1298 21.1947 75.8062C20.8268 71.8354 18.7228 68.5865 15.8226 67.0222C15.1702 68.5865 13.8011 69.7898 12.2097 69.7898C10.6184 69.7898 9.24893 68.5865 8.59701 67.0222Z" fill="white"/>
<path d="M17.236 60.1636C17.236 61.7593 16.7064 63.2896 15.7638 64.4178C14.8212 65.5461 13.5427 66.18 12.2097 66.18C10.8766 66.18 9.59814 65.5461 8.65552 64.4178C7.71291 63.2896 7.18335 61.7593 7.18335 60.1636C7.18335 58.568 7.71291 57.0377 8.65552 55.9094C9.59814 54.7811 10.8766 54.1473 12.2097 54.1473C13.5427 54.1473 14.8212 54.7811 15.7638 55.9094C16.7064 57.0377 17.236 58.568 17.236 60.1636Z" fill="white"/>
<path d="M12.2097 64.9767C10.926 64.9767 9.7023 65.3004 8.59701 65.8792C5.69623 67.3977 3.59272 70.6887 3.2252 74.6029C3.2252 75.9325 4.06248 77.0094 5.17289 77.0094H19.2465C20.3574 77.0094 21.1947 75.9325 21.1947 74.6029C20.8268 70.6887 18.7228 67.3977 15.8226 65.8792C14.7168 65.3004 13.4934 64.9767 12.2097 64.9767Z" fill="white"/>
<path d="M12.2097 132.36C11.146 132.36 10.1258 131.97 9.37358 131.276C8.62138 130.581 8.19881 129.64 8.19881 128.658C8.19881 128.412 8.30445 128.177 8.4925 128.003C8.68055 127.83 8.9356 127.732 9.20154 127.732H15.2179C15.4838 127.732 15.7389 127.83 15.9269 128.003C16.115 128.177 16.2206 128.412 16.2206 128.658C16.2206 129.64 15.798 130.581 15.0459 131.276C14.2937 131.97 13.2735 132.36 12.2097 132.36ZM10.475 129.583C10.6513 129.864 10.9043 130.097 11.2088 130.258C11.5132 130.42 11.8584 130.505 12.2097 130.505C12.561 130.505 12.9062 130.42 13.2107 130.258C13.5151 130.097 13.7681 129.864 13.9444 129.583H10.475Z" fill="white"/>
<path d="M14.2153 111.997H10.2044C9.93844 111.997 9.6834 111.899 9.49535 111.726C9.3073 111.552 9.20166 111.317 9.20166 111.071C9.20166 110.335 9.51859 109.629 10.0827 109.108C10.6469 108.587 11.412 108.295 12.2098 108.295C13.0077 108.295 13.7728 108.587 14.3369 109.108C14.9011 109.629 15.218 110.335 15.218 111.071C15.218 111.317 15.1124 111.552 14.9243 111.726C14.7363 111.899 14.4812 111.997 14.2153 111.997Z" fill="white"/>
<path d="M23.2398 129.583H1.17985C0.913907 129.583 0.658859 129.486 0.470812 129.312C0.282764 129.138 0.177119 128.903 0.177119 128.658C0.17624 127.612 0.449366 126.582 0.973188 125.656C1.49701 124.729 2.25597 123.933 3.1853 123.335V118.476C3.18525 116.276 4.12778 114.166 5.80722 112.605C7.48666 111.045 9.76666 110.16 12.1497 110.146H12.26C14.6534 110.146 16.9489 111.023 18.6413 112.586C20.3337 114.148 21.2845 116.267 21.2845 118.476V123.335C22.2046 123.938 22.9538 124.736 23.4687 125.663C23.9836 126.589 24.2491 127.616 24.2426 128.658C24.2426 128.903 24.1369 129.138 23.9489 129.312C23.7608 129.486 23.5058 129.583 23.2398 129.583ZM2.28285 127.732H22.1368C21.9948 127.09 21.7069 126.484 21.292 125.952C20.8772 125.421 20.3449 124.977 19.7303 124.65C19.5773 124.568 19.4503 124.451 19.3623 124.309C19.2742 124.168 19.2282 124.008 19.2289 123.844V118.476C19.2289 116.758 18.4894 115.11 17.1731 113.895C15.8567 112.68 14.0714 111.997 12.2098 111.997C10.3483 111.997 8.56293 112.68 7.2466 113.895C5.93026 115.11 5.19075 116.758 5.19075 118.476V123.844C5.19145 124.008 5.14545 124.168 5.05741 124.309C4.96937 124.451 4.84241 124.568 4.68939 124.65C4.07483 124.977 3.54252 125.421 3.12767 125.952C2.71282 126.484 2.42487 127.09 2.28285 127.732Z" fill="white"/>
<path d="M12.9289 170.962L12.2095 169.867L11.4901 170.962C11.3976 171.102 11.2192 171.2 11.0128 171.222L9.40362 171.397L10.5679 172.249C10.718 172.359 10.7863 172.517 10.7502 172.672L10.475 173.875L11.9145 173.307C12.0992 173.234 12.3198 173.234 12.5044 173.307L13.944 173.875L13.6695 172.672C13.6335 172.517 13.7017 172.359 13.8518 172.249L15.0161 171.398L13.4062 171.222C13.1998 171.2 13.0213 171.102 12.9289 170.962Z" fill="white"/>
<path d="M12.2094 166.637C8.35592 166.637 5.232 168.981 5.232 171.873C5.232 174.765 8.35592 177.11 12.2094 177.11C16.0629 177.11 19.1868 174.765 19.1868 171.873C19.1825 168.983 16.0612 166.64 12.2094 166.637ZM16.8188 171.406L14.9738 172.756L15.4095 174.662C15.4671 174.921 15.234 175.166 14.8889 175.209C14.7526 175.226 14.6125 175.21 14.4902 175.161L12.2094 174.263L9.92869 175.161C9.61905 175.284 9.23594 175.194 9.07304 174.962C9.00815 174.869 8.98573 174.763 9.00934 174.66L9.44506 172.754L7.60004 171.404C7.34958 171.221 7.34464 170.92 7.58902 170.732C7.68647 170.657 7.81399 170.608 7.95202 170.593L10.5024 170.315L11.6427 168.581C11.7976 168.346 12.1775 168.249 12.4913 168.365C12.6161 168.411 12.7172 168.487 12.7789 168.581L13.9192 170.315L16.4689 170.593C16.8152 170.631 17.0555 170.872 17.0055 171.132C16.9856 171.235 16.9207 171.331 16.8209 171.404L16.8188 171.406Z" fill="white"/>
<path d="M22.6277 173.491C22.3835 173.007 22.1068 172.457 22.1068 171.873C22.1068 171.29 22.3835 170.74 22.6277 170.256C22.8122 169.89 23.0417 169.434 22.9635 169.252C22.8748 169.047 22.3377 168.784 21.864 168.552C21.3008 168.277 20.6602 167.964 20.2196 167.51C19.7789 167.055 19.572 166.493 19.3945 166.001C19.2537 165.615 19.0806 165.134 18.856 165.012C18.6315 164.889 17.981 164.916 17.4524 164.935C16.771 164.96 15.9994 164.988 15.2701 164.81C14.5662 164.638 13.9812 164.281 13.4631 163.968C13.0168 163.697 12.5129 163.393 12.2094 163.393C11.906 163.393 11.402 163.697 10.9578 163.968C10.439 164.285 9.85265 164.638 9.15082 164.81C8.42437 164.986 7.65284 164.959 6.9686 164.935C6.43925 164.917 5.78176 164.893 5.56425 165.012C5.34673 165.131 5.17006 165.615 5.02926 166.001C4.85114 166.493 4.64916 167.051 4.20355 167.51C3.75794 167.969 3.12368 168.276 2.55989 168.552C2.08546 168.784 1.54835 169.046 1.45966 169.252C1.38081 169.434 1.61104 169.89 1.79542 170.256C2.03968 170.741 2.31632 171.29 2.31632 171.873C2.31632 172.457 2.03968 173.007 1.79611 173.491C1.61167 173.858 1.38219 174.314 1.46035 174.495C1.54904 174.7 2.08615 174.962 2.55989 175.194C3.12306 175.47 3.76363 175.783 4.2043 176.237C4.64496 176.691 4.85189 177.254 5.02933 177.745C5.17012 178.131 5.34329 178.612 5.56782 178.735C5.79235 178.857 6.44282 178.83 6.97148 178.811C7.21856 178.802 7.4734 178.793 7.73457 178.793C8.29774 178.793 8.74961 178.839 9.15088 178.937C9.85484 179.107 10.4391 179.465 10.9572 179.778C11.4021 180.048 11.9061 180.353 12.2095 180.353C12.5129 180.353 13.0169 180.048 13.4611 179.779C13.9799 179.462 14.5669 179.108 15.2681 178.937C15.9938 178.76 16.7654 178.788 17.446 178.811C17.9768 178.83 18.6343 178.853 18.8539 178.735C19.0735 178.616 19.2488 178.132 19.3896 177.745C19.5677 177.253 19.769 176.697 20.2153 176.237C20.6616 175.777 21.2952 175.47 21.859 175.194C22.3334 174.962 22.8705 174.7 22.9592 174.495C23.038 174.313 22.8086 173.858 22.6241 173.491H22.6277V173.491ZM12.2095 178.061C7.65615 178.061 3.96499 175.291 3.96499 171.873C3.96499 168.456 7.65615 165.686 12.2095 165.686C16.7628 165.686 20.454 168.456 20.454 171.873C20.4489 175.289 16.7607 178.057 12.2095 178.061Z" fill="white"/>
<path d="M16.4685 170.595L13.9188 170.317L12.7785 168.583C12.6235 168.347 12.2437 168.25 11.93 168.367C11.8051 168.413 11.704 168.489 11.6424 168.583L10.502 170.317L7.95164 170.595C7.6053 170.632 7.36505 170.873 7.41503 171.133C7.43495 171.237 7.49983 171.333 7.59966 171.406L9.44468 172.756L9.00896 174.662C8.95072 174.921 9.18326 175.166 9.52823 175.21C9.6652 175.227 9.80606 175.21 9.929 175.161L12.2097 174.263L14.4905 175.161C14.8001 175.284 15.1832 175.194 15.3461 174.962C15.411 174.869 15.4334 174.763 15.4098 174.66L14.9741 172.754L16.8191 171.404C17.0696 171.221 17.0745 170.92 16.8301 170.732C16.7327 170.657 16.6052 170.608 16.4671 170.593L16.4685 170.595ZM13.8513 172.249C13.7011 172.359 13.6329 172.517 13.669 172.672L13.9435 173.875L12.5039 173.307C12.3193 173.234 12.0986 173.234 11.914 173.307L10.4744 173.875L10.7497 172.672C10.7857 172.517 10.7175 172.359 10.5674 172.249L9.40309 171.398L11.013 171.222C11.2194 171.2 11.3979 171.102 11.4902 170.962L12.2097 169.867L12.9291 170.962C13.0215 171.102 13.2 171.2 13.4063 171.222L15.0156 171.397L13.8513 172.249Z" fill="#1B1B1B"/>
<path d="M12.2096 165.686C7.65629 165.686 3.96513 168.456 3.96513 171.873C3.96513 175.291 7.65629 178.061 12.2096 178.061C16.7629 178.061 20.4541 175.291 20.4541 171.873C20.449 168.458 16.7609 165.69 12.2096 165.686ZM12.2096 177.11C8.35612 177.11 5.2322 174.765 5.2322 171.873C5.2322 168.981 8.35612 166.637 12.2096 166.637C16.0631 166.637 19.187 168.981 19.187 171.873C19.1827 174.764 16.0614 177.107 12.2096 177.11Z" fill="#1B1B1B"/>
<path d="M8.7602 179.842C8.4892 179.776 8.16328 179.745 7.73526 179.745C7.50366 179.745 7.2636 179.754 7.0313 179.762C6.40763 179.784 5.80995 179.805 5.30666 179.685L4.44224 181.342L3.2864 183.561L6.16056 183.303C6.37131 183.284 6.58087 183.345 6.71878 183.466L8.59687 185.119L10.5679 181.342L10.8037 180.889C10.5869 180.774 10.3743 180.646 10.1645 180.519C9.70698 180.243 9.2382 179.958 8.7602 179.842Z" fill="white"/>
<path d="M19.9768 181.342L19.113 179.685C18.6097 179.805 18.0121 179.784 17.3884 179.762C16.7647 179.74 16.1657 179.718 15.6596 179.842C15.1809 179.959 14.7121 180.243 14.258 180.518C14.0468 180.646 13.8356 180.774 13.6188 180.888L13.8546 181.341L15.8257 185.118L17.7002 183.466C17.8378 183.345 18.0471 183.283 18.2578 183.302L21.1326 183.561L19.9768 181.342Z" fill="white"/>
<path d="M12.2096 181.305C12.1235 181.305 12.0376 181.299 11.9527 181.289L11.9245 181.342H12.4912L12.463 181.289C12.3792 181.299 12.2945 181.305 12.2096 181.305Z" fill="white"/>
<path d="M23.8098 173.154C23.5838 172.706 23.3705 172.283 23.3705 171.872C23.3705 171.462 23.5817 171.039 23.8091 170.591C24.1026 170.01 24.3807 169.456 24.1646 168.957C23.9372 168.433 23.2326 168.088 22.5511 167.755C22.0584 167.512 21.5431 167.262 21.2397 166.949C20.9364 166.636 20.7695 166.184 20.6126 165.751C20.3908 165.139 20.1817 164.561 19.5968 164.242C19.0118 163.923 18.2269 163.955 17.3878 163.984C16.7874 164.006 16.1658 164.028 15.6596 163.904C15.181 163.787 14.7114 163.503 14.2581 163.227C13.6175 162.842 12.9614 162.442 12.2096 162.442C11.4578 162.442 10.8017 162.842 10.1612 163.229C9.70785 163.504 9.23832 163.788 8.75963 163.905C8.25352 164.028 7.65941 164.008 7.03148 163.985C6.19237 163.956 5.39978 163.928 4.82183 164.243C4.24388 164.559 4.02781 165.141 3.80604 165.753C3.64909 166.185 3.48712 166.633 3.17886 166.951C2.87053 167.269 2.36373 167.514 1.86745 167.756C1.18603 168.09 0.481384 168.434 0.254037 168.959C0.0379009 169.458 0.315978 170.009 0.609525 170.593C0.834805 171.041 1.04806 171.464 1.04806 171.874C1.04806 172.284 0.836872 172.707 0.609525 173.155C0.315978 173.737 0.0379009 174.29 0.254037 174.789C0.481384 175.314 1.18603 175.658 1.86745 175.992C2.36022 176.234 2.87548 176.485 3.17817 176.797C3.48086 177.11 3.6484 177.563 3.80535 177.996C3.9405 178.37 4.07215 178.731 4.28754 179.028L3.08172 181.342L1.72102 183.954C1.59376 184.199 1.75484 184.474 2.0807 184.57C2.17778 184.598 2.28275 184.608 2.38621 184.599L5.97629 184.277L8.3211 186.34C8.54838 186.54 8.94827 186.564 9.21433 186.393C9.29437 186.342 9.35606 186.276 9.39389 186.203L11.928 181.342L11.9562 181.289C12.1266 181.311 12.3004 181.311 12.4708 181.289L12.499 181.342L15.0331 186.203C15.1605 186.447 15.5281 186.568 15.854 186.472C15.9512 186.444 16.0375 186.397 16.1052 186.338L18.45 184.274L22.0401 184.597C22.3881 184.624 22.6998 184.435 22.7364 184.173C22.7468 184.099 22.7337 184.024 22.6983 183.954L21.3376 181.342L20.1317 179.027C20.3471 178.73 20.4781 178.368 20.6139 177.994C20.7702 177.562 20.9321 177.114 21.2411 176.796C21.5501 176.478 22.0562 176.233 22.5525 175.991C23.2339 175.657 23.9393 175.313 24.1659 174.788C24.3807 174.29 24.1061 173.739 23.8098 173.154ZM8.59629 185.119L6.7189 183.466C6.58111 183.345 6.37193 183.284 6.16136 183.303L3.28652 183.561L4.44236 181.342L5.30609 179.685C5.80938 179.805 6.40706 179.784 7.03073 179.762C7.26303 179.753 7.50309 179.745 7.73469 179.745C8.16271 179.745 8.48863 179.775 8.75963 179.842C9.23832 179.958 9.7071 180.242 10.1612 180.518C10.3724 180.646 10.5835 180.774 10.8004 180.888L10.5638 181.342L8.59629 185.119ZM21.1327 183.561L18.2585 183.303C18.0479 183.284 17.8385 183.346 17.701 183.467L15.8229 185.12L13.8519 181.343L13.6175 180.889C13.8343 180.774 14.0469 180.646 14.2567 180.519C14.71 180.244 15.1795 179.96 15.6582 179.843C16.1636 179.72 16.7571 179.741 17.387 179.763C18.017 179.785 18.6084 179.806 19.1117 179.686L19.9768 181.342L21.1327 183.561ZM22.9629 174.495C22.8743 174.7 22.3371 174.963 21.8627 175.195C21.2995 175.47 20.659 175.783 20.219 176.238C19.7791 176.692 19.5715 177.254 19.3933 177.746C19.2525 178.132 19.0794 178.613 18.8548 178.735C18.6303 178.858 17.9798 178.831 17.447 178.812C16.7663 178.788 15.9948 178.759 15.269 178.938C14.5651 179.109 13.9801 179.466 13.462 179.779C13.0178 180.049 12.5138 180.354 12.2104 180.354C11.907 180.354 11.403 180.049 10.9581 179.778C10.4401 179.464 9.85297 179.108 9.15182 178.937C8.75055 178.839 8.30074 178.794 7.73551 178.794C7.47434 178.794 7.21881 178.803 6.97242 178.812C6.44376 178.831 5.78627 178.854 5.56876 178.735C5.35125 178.616 5.17031 178.132 5.02951 177.745C4.8514 177.253 4.6501 176.697 4.20449 176.237C3.75888 175.777 3.12462 175.47 2.56007 175.194C2.08634 174.962 1.54923 174.7 1.46054 174.495C1.38169 174.314 1.61192 173.858 1.7963 173.491C2.04056 173.007 2.31651 172.458 2.31651 171.873C2.31651 171.289 2.03987 170.74 1.79561 170.256C1.61117 169.89 1.38169 169.434 1.45985 169.252C1.54854 169.047 2.08565 168.784 2.56007 168.552C3.12324 168.276 3.76307 167.963 4.20374 167.51C4.6444 167.056 4.85133 166.493 5.02945 166.001C5.17024 165.615 5.34342 165.134 5.56794 165.012C5.79247 164.889 6.44295 164.916 6.9723 164.935C7.65302 164.96 8.42519 164.988 9.15452 164.81C9.85848 164.638 10.4427 164.281 10.9615 163.968C11.4022 163.697 11.9062 163.393 12.2096 163.393C12.513 163.393 13.017 163.697 13.4612 163.968C13.9793 164.282 14.5664 164.638 15.2682 164.81C15.9947 164.987 16.7669 164.959 17.4504 164.935C17.9791 164.917 18.6366 164.894 18.8541 165.012C19.0716 165.13 19.249 165.615 19.3898 166.001C19.5679 166.493 19.7692 167.05 20.2148 167.51C20.6604 167.969 21.2947 168.277 21.8592 168.553C22.3329 168.784 22.8701 169.047 22.9594 169.252C23.0383 169.434 22.8081 169.89 22.6237 170.256C22.3794 170.74 22.1028 171.29 22.1028 171.873C22.1028 172.457 22.3794 173.007 22.6237 173.491H22.6279C22.8088 173.858 23.0383 174.314 22.9594 174.495L22.9629 174.495Z" fill="white"/>
<path d="M0.352127 221.479L2.16105 234.026C2.19789 234.281 2.41687 234.471 2.67505 234.471H22.0727C22.3366 234.471 22.5585 234.273 22.5886 234.011L24.0932 220.899C24.1468 220.432 23.6011 220.14 23.2419 220.443L17.2404 225.519C16.9825 225.737 16.5883 225.654 16.4391 225.351L12.6181 217.591C12.423 217.195 11.8536 217.208 11.6765 217.613L8.28657 225.358C8.15377 225.661 7.77467 225.764 7.50635 225.57L1.17061 220.985C0.798985 220.716 0.286664 221.025 0.352127 221.479Z" fill="white" stroke="white" stroke-width="0.690544"/>
<path d="M2.22529 239.269V237.693C2.22529 236.929 2.84531 236.309 3.61015 236.309H20.9803C21.7451 236.309 22.3652 236.929 22.3652 237.693V239.269C22.3652 240.034 21.7451 240.654 20.9803 240.654H3.61014C2.84531 240.654 2.22529 240.034 2.22529 239.269Z" fill="white" stroke="white" stroke-width="0.690544"/>
</svg>
