<svg width="24" height="24" viewBox="0 0 24 24" fill="none" xmlns="http://www.w3.org/2000/svg">
<path d="M18.8789 13.4998H7.5C7.10217 13.4998 6.72065 13.3418 6.43934 13.0605C6.15804 12.7792 6 12.3977 6 11.9998C6 11.602 6.15804 11.2205 6.43934 10.9392C6.72065 10.6579 7.10217 10.4998 7.5 10.4998H18.8789L16.9395 8.56038C16.6595 8.27883 16.5026 7.89775 16.5031 7.50069C16.5037 7.10363 16.6616 6.72299 16.9424 6.44223C17.2232 6.16146 17.6038 6.00348 18.0009 6.00293C18.3979 6.00238 18.779 6.1593 19.0606 6.43928L23.5606 10.9393C23.6999 11.0785 23.8104 11.2439 23.8858 11.4258C23.9612 11.6078 24 11.8029 24 11.9998C24 12.1968 23.9612 12.3919 23.8858 12.5738C23.8104 12.7558 23.6999 12.9211 23.5606 13.0604L19.0606 17.5604C18.9214 17.7003 18.756 17.8114 18.5739 17.8873C18.3918 17.9631 18.1965 18.0024 17.9991 18.0026C17.8018 18.0029 17.6064 17.9642 17.424 17.8889C17.2417 17.8135 17.076 17.7029 16.9365 17.5633C16.797 17.4238 16.6864 17.2581 16.611 17.0758C16.5356 16.8934 16.4969 16.698 16.4972 16.5007C16.4975 16.3034 16.5367 16.1081 16.6126 15.9259C16.6885 15.7438 16.7995 15.5784 16.9395 15.4393L18.8789 13.4998Z" fill="white"/>
<path d="M1.5 2.41129e-07H13.5C13.697 -0.000111495 13.8921 0.0386109 14.0742 0.113953C14.2562 0.189296 14.4216 0.299781 14.5609 0.439091C14.7002 0.578401 14.8107 0.743804 14.886 0.925843C14.9614 1.10788 15.0001 1.30299 15 1.5V4.5C15 4.89783 14.842 5.27936 14.5607 5.56066C14.2794 5.84197 13.8978 6 13.5 6C13.1022 6 12.7206 5.84197 12.4393 5.56066C12.158 5.27936 12 4.89783 12 4.5V3H3V21H12V19.5C12 19.1022 12.158 18.7206 12.4393 18.4393C12.7206 18.158 13.1022 18 13.5 18C13.8978 18 14.2794 18.158 14.5607 18.4393C14.842 18.7206 15 19.1022 15 19.5V22.5C15.0001 22.697 14.9614 22.8921 14.886 23.0742C14.8107 23.2562 14.7002 23.4216 14.5609 23.5609C14.4216 23.7002 14.2562 23.8107 14.0742 23.886C13.8921 23.9614 13.697 24.0001 13.5 24H1.5C1.30298 24.0001 1.10788 23.9614 0.92584 23.886C0.743802 23.8107 0.578399 23.7002 0.439089 23.5609C0.299779 23.4216 0.189293 23.2562 0.113951 23.0742C0.0386086 22.8921 -0.000113487 22.697 -1.90735e-06 22.5V1.5C-0.000113487 1.30299 0.0386086 1.10788 0.113951 0.925843C0.189293 0.743804 0.299779 0.578401 0.439089 0.439091C0.578399 0.299781 0.743802 0.189296 0.92584 0.113953C1.10788 0.0386109 1.30298 -0.000111495 1.5 2.41129e-07Z" fill="white"/>
</svg>
