<svg width="24" height="24" viewBox="0 0 24 24" fill="none" xmlns="http://www.w3.org/2000/svg">
<g clip-path="url(#clip0_208_6383)">
<path d="M22.6174 13.7451L22.1329 13.4846C21.5563 13.1751 21.2118 12.6197 21.2118 12C21.2118 11.3803 21.5563 10.8249 22.1329 10.5154L22.6174 10.2549C23.9402 9.54343 24.3925 7.97314 23.6288 6.74229L22.7077 5.25771C21.9459 4.02943 20.252 3.60771 18.9329 4.31657L18.4484 4.57629C17.8718 4.88657 17.1818 4.88657 16.6061 4.57629C16.0295 4.266 15.685 3.71143 15.685 3.09171V2.57143C15.685 1.15371 14.4451 0 12.9216 0H11.0793C9.55577 0 8.31593 1.15371 8.31593 2.57143V3.09257C8.31593 3.71229 7.97143 4.26686 7.3948 4.57714C6.81817 4.88657 6.12916 4.88743 5.55253 4.57714L5.06802 4.31657C3.74896 3.60771 2.05499 4.02943 1.2923 5.25771L0.371164 6.74229C-0.392454 7.97314 0.0598216 9.54429 1.38257 10.2549L1.868 10.5154C2.44463 10.8249 2.78914 11.3803 2.78914 12C2.78914 12.6197 2.44463 13.1751 1.868 13.4846L1.38349 13.7451C0.0607427 14.4557 -0.391533 16.0269 0.372085 17.2577L1.29322 18.7423C2.05592 19.9706 3.74988 20.3923 5.06802 19.6834L5.55253 19.4237C6.12916 19.1126 6.81817 19.1143 7.3948 19.4237C7.97143 19.734 8.31593 20.2886 8.31593 20.9083V21.4286C8.31593 22.8463 9.55577 24 11.0793 24H12.9216C14.4451 24 15.685 22.8463 15.685 21.4286V20.9074C15.685 20.2877 16.0295 19.7331 16.6061 19.4229C17.1818 19.1134 17.8718 19.1126 18.4484 19.4229L18.9329 19.6834C20.252 20.3914 21.9459 19.9697 22.7077 18.7423L23.6288 17.2577C24.3925 16.0269 23.9402 14.4557 22.6174 13.7451ZM12.0005 16.2857C9.4609 16.2857 7.3948 14.3631 7.3948 12C7.3948 9.63686 9.4609 7.71429 12.0005 7.71429C14.54 7.71429 16.6061 9.63686 16.6061 12C16.6061 14.3631 14.54 16.2857 12.0005 16.2857Z" fill="white"/>
</g>
<defs>
<clipPath id="clip0_208_6383">
<rect width="24" height="24" fill="white"/>
</clipPath>
</defs>
</svg>
