<svg width="1163" height="356" viewBox="0 0 1163 356" fill="none" xmlns="http://www.w3.org/2000/svg">
<path d="M1.23461 348.933C3.01767 350.923 8.40251 354.691 15.6774 353.849C24.771 352.795 45.0978 350.338 57.4009 350.338C69.704 350.338 75.0532 352.795 91.1007 336.997C107.148 321.198 88.9611 260.109 131.22 206.043C150.049 192.561 177.579 200.425 188.991 206.043C204.503 214.352 240.664 221.49 261.205 183.573C281.745 145.656 284.741 116.985 283.671 107.388C287.237 101.888 299.184 96.5749 318.441 119.325C322.292 124.942 332.349 120.378 335.023 117.921C337.876 115.814 343.796 113.357 344.652 120.378C345.721 129.155 364.978 206.394 384.77 221.841C404.562 237.289 417.935 225.703 418.47 173.041C418.898 130.911 460.015 225.469 480.521 278.015C485.692 288.43 498.066 303.293 506.197 279.419C516.36 249.577 547.92 143.55 556.479 136.528C565.038 129.507 573.061 118.974 577.876 59.29C577.876 45.9488 596.598 41.7358 602.482 34.7142C608.366 27.6925 612.11 -2.14952 623.879 2.06347C635.647 6.27646 629.228 121.08 657.578 136.528C685.929 151.976 681.115 70.1738 705.186 88.781C713.031 96.3878 734.072 136.388 755.468 235.534C777.4 250.63 789.703 206.043 803.611 206.043C817.519 206.043 819.658 266.78 888.663 197.266C906.85 179.711 934.131 233.427 947.504 191.999C960.877 150.572 949.643 28.0437 968.365 55.7792C987.088 83.5148 989.227 148.816 1024.53 81.0572C1036.83 59.29 1041.65 76.8442 1065.19 154.082C1087.65 173.041 1079.09 45.2467 1097.28 45.9489C1115.47 46.6511 1140.61 88.781 1161.47 38.9272" stroke="#A6C5F3" stroke-width="3.31556"/>
</svg>
